<svg xmlns="http://www.w3.org/2000/svg" viewBox="0 0 90.69 94.88">
   <defs>
      <style>.cls-1{fill:#fff;}.cls-2{fill:#f2f4f9;}.cls-3{fill:#00e1ff;}.cls-4{fill:#00c6f4;}.cls-5{fill:#122c3d;opacity:0.2;}.cls-6{fill:#ffda24;}.cls-7{fill:#ffa300;}</style>
   </defs>
   <g>
      <path class="cls-1" d="M50.18,0A23.84,23.84,0,0,0,27.52,16.45a18.37,18.37,0,0,0-13,11.08,15,15,0,0,0,0,30v0h36V0Z" />
      <path class="cls-2" d="M73.82,20.91A23.82,23.82,0,0,0,50.46,0v57.5H73.15v0a18.32,18.32,0,0,0,.67-36.56Z" />
      <path class="cls-3" d="M30.83,46,16.34,49.9l-1.23.33a10,10,0,0,0-3.94,16.55L31.79,46.17A1,1,0,0,0,30.83,46Z" />
      <path class="cls-4" d="M27.72,62.86l.33-1.24L32,47.13a1,1,0,0,0-.16-1L11.17,66.78a10,10,0,0,0,14.14,0A9.9,9.9,0,0,0,27.72,62.86Z" />
      <path class="cls-5" d="M32,47.13,29.16,57.51h14L31.79,46.17A1,1,0,0,1,32,47.13Z" />
      <path class="cls-5" d="M78.07,50.13,76.2,57.07a18.19,18.19,0,0,0,6.69-2.91l-5-5A1,1,0,0,1,78.07,50.13Z" />
      <path class="cls-3" d="M77,49,62.46,52.9l-1.23.33a10.11,10.11,0,0,0-3.94,2.42,10,10,0,0,0,0,14.13L77.91,49.17A1,1,0,0,0,77,49Z" />
      <path class="cls-4" d="M73.84,65.86l.33-1.24,3.9-14.49a1,1,0,0,0-.16-1L57.29,69.78a10,10,0,0,0,16.55-3.92Z" />
      <polygon class="cls-6" points="53.28 57.51 36.86 57.51 29.63 75.64 41.23 75.64 34.14 94.88 57.12 69.04 45.59 69.04 53.28 57.51" />
      <polygon class="cls-7" points="53.28 57.51 36.86 57.51 36.84 57.56 46.69 67.4 53.28 57.51" />
   </g>
</svg>