<svg xmlns="http://www.w3.org/2000/svg" viewBox="0 0 86.93 78.71">
   <defs>
      <style>.cls-1{fill:#fff;}.cls-2{fill:#f2f4f9;}.cls-3{fill:#00e1ff;}.cls-4{fill:#00c6f4;}</style>
   </defs>
   <g>
      <path class="cls-1" d="M48.1,0A22.87,22.87,0,0,0,26.38,15.77,17.61,17.61,0,0,0,13.89,26.39a14.36,14.36,0,0,0,0,28.71v0H48.37V0Z" />
      <path class="cls-2" d="M70.76,20A22.83,22.83,0,0,0,48.37,0V55.13H70.12v0A17.56,17.56,0,0,0,70.76,20Z" />
      <path class="cls-3" d="M45.68,64.93l-8.43,2.26-.72.19a5.87,5.87,0,0,0-2.29,1.41,5.81,5.81,0,0,0,0,8.22l12-12A.57.57,0,0,0,45.68,64.93Z" />
      <path class="cls-4" d="M43.87,74.73l.2-.72,2.26-8.43a.6.6,0,0,0-.09-.56l-12,12a5.82,5.82,0,0,0,8.23,0A5.74,5.74,0,0,0,43.87,74.73Z" />
      <path class="cls-3" d="M26.76,58l-8.43,2.26-.72.19a5.82,5.82,0,0,0-2.28,9.64l12-12A.57.57,0,0,0,26.76,58Z" />
      <path class="cls-4" d="M25,67.82l.2-.72,2.26-8.43a.55.55,0,0,0-.09-.56l-12,12A5.8,5.8,0,0,0,25,67.82Z" />
      <path class="cls-3" d="M67,58.08l-8.43,2.27-.72.19a5.8,5.8,0,0,0-2.29,9.63l12-12A.58.58,0,0,0,67,58.08Z" />
      <path class="cls-4" d="M65.16,67.88l.19-.72,2.27-8.43a.58.58,0,0,0-.09-.55l-12,12a5.81,5.81,0,0,0,9.63-2.29Z" />
   </g>
</svg>