<svg xmlns="http://www.w3.org/2000/svg" viewBox="0 0 85.68 85.68">
   <defs>
      <style>.cls-1{fill:#ffda24;}.cls-2{fill:#ffa300;}.cls-3{fill:#fff;opacity:0.15;}</style>
   </defs>
   <g>
      <path class="cls-1" d="M77.71,42.84A34.87,34.87,0,1,1,42.84,8,34.87,34.87,0,0,1,77.71,42.84Z" />
      <path class="cls-1" d="M14.13,11,11,14.13a4.24,4.24,0,0,0,0,6l3.09,3.08a35,35,0,0,1,9.14-9.13L20.1,11A4.24,4.24,0,0,0,14.13,11Zm57.42,0a4.24,4.24,0,0,0-6,0l-3.09,3.09a34.85,34.85,0,0,1,9.14,9.14l3.09-3.09a4.24,4.24,0,0,0,0-6ZM45.08,0H40.6a4.23,4.23,0,0,0-4.22,4.22V8.6a33.44,33.44,0,0,1,12.92,0V4.22A4.23,4.23,0,0,0,45.08,0ZM4.22,36.38A4.23,4.23,0,0,0,0,40.6v4.48A4.23,4.23,0,0,0,4.22,49.3H8.6a33.44,33.44,0,0,1,0-12.92ZM71.63,62.49a34.85,34.85,0,0,1-9.14,9.14l3.09,3.08a4.24,4.24,0,0,0,6,0l3.17-3.16a4.24,4.24,0,0,0,0-6Zm9.83-26.11H77.08a33.44,33.44,0,0,1,0,12.92h4.38a4.23,4.23,0,0,0,4.22-4.22V40.6A4.23,4.23,0,0,0,81.46,36.38ZM14.05,62.49,11,65.58a4.24,4.24,0,0,0,0,6l3.17,3.17a4.24,4.24,0,0,0,6,0l3.08-3.09A35,35,0,0,1,14.05,62.49ZM36.38,77.08v4.38a4.23,4.23,0,0,0,4.22,4.22h4.48a4.23,4.23,0,0,0,4.22-4.22V77.08a33.44,33.44,0,0,1-12.92,0Z" />
      <path class="cls-2" d="M36.38,6.78V8.6a33.44,33.44,0,0,1,12.92,0V6.78a34.51,34.51,0,0,0-12.92,0ZM71.63,23.19l1.28-1.29a36.67,36.67,0,0,0-9.13-9.13l-1.29,1.28A34.85,34.85,0,0,1,71.63,23.19ZM6.78,36.38a34.51,34.51,0,0,0,0,12.92H8.6a33.44,33.44,0,0,1,0-12.92ZM62.49,71.63l1.29,1.28a36.88,36.88,0,0,0,9.14-9.13l-1.29-1.29A34.85,34.85,0,0,1,62.49,71.63ZM78.9,36.38H77.08a33.44,33.44,0,0,1,0,12.92H78.9a34.51,34.51,0,0,0,0-12.92ZM36.38,77.08V78.9a34.51,34.51,0,0,0,12.92,0V77.08a33.44,33.44,0,0,1-12.92,0ZM14.05,62.49l-1.29,1.29a36.92,36.92,0,0,0,9.14,9.14l1.28-1.29A35,35,0,0,1,14.05,62.49ZM12.76,21.9l1.29,1.28a35,35,0,0,1,9.14-9.13L21.9,12.76A37.09,37.09,0,0,0,12.76,21.9Z" />
      <path class="cls-3" d="M65.58,11l-3.09,3.09A34.54,34.54,0,0,0,49.3,8.6V4.22A4.23,4.23,0,0,0,45.08,0H40.6a4.23,4.23,0,0,0-4.22,4.22V8.6a34.54,34.54,0,0,0-13.19,5.45L20.1,11a4.24,4.24,0,0,0-6,0L11,14.13a4.24,4.24,0,0,0,0,6l3.09,3.08A34.65,34.65,0,0,0,8.6,36.38H4.22A4.23,4.23,0,0,0,0,40.6v4.48A4.23,4.23,0,0,0,4.22,49.3H8.6a34.54,34.54,0,0,0,5.45,13.19L11,65.58a4.24,4.24,0,0,0,0,6l1.83,1.83L73.38,12.79,71.55,11A4.24,4.24,0,0,0,65.58,11Z" />
   </g>
</svg>