<svg xmlns="http://www.w3.org/2000/svg" viewBox="0 0 85.27 85.27">
   <defs>
      <style>.cls-1{fill:#c6c5a3;}.cls-2{fill:#d1d1b0;}.cls-3{fill:#b7b284;}.cls-4{fill:#c1be99;}</style>
   </defs>
   <g>
      <path class="cls-1" d="M85.27,42.63A42.64,42.64,0,1,1,42.63,0,42.64,42.64,0,0,1,85.27,42.63Z" />
      <path class="cls-2" d="M42.63,0A42.4,42.4,0,0,0,19.74,6.68a42.63,42.63,0,0,0,36,65.52,42.39,42.39,0,0,0,22.89-6.67A42.62,42.62,0,0,0,42.63,0Z" />
      <path class="cls-3" d="M23.13,37.37a8,8,0,1,1-8-8A8,8,0,0,1,23.13,37.37Z" />
      <path class="cls-4" d="M15.14,29.38a8,8,0,0,0-4.3,1.25,8,8,0,0,0,11,11,8,8,0,0,0-6.74-12.28Z" />
      <path class="cls-3" d="M55.78,40.81a11.2,11.2,0,1,1-11.21-11.2A11.2,11.2,0,0,1,55.78,40.81Z" />
      <path class="cls-4" d="M44.57,29.61a11.14,11.14,0,0,0-6,1.76,11.08,11.08,0,0,0-1.75,6A11.2,11.2,0,0,0,54,46.83a11.19,11.19,0,0,0-9.45-17.22Z" />
      <path class="cls-3" d="M29.56,64.75a4.68,4.68,0,1,1-4.68-4.68A4.69,4.69,0,0,1,29.56,64.75Z" />
      <path class="cls-4" d="M24.88,60.07a4.7,4.7,0,0,0-2.52.73,4.68,4.68,0,0,0,6.46,6.47,4.63,4.63,0,0,0,.74-2.52A4.69,4.69,0,0,0,24.88,60.07Z" />
      <path class="cls-3" d="M68.38,18a5.74,5.74,0,1,1-5.74-5.74A5.74,5.74,0,0,1,68.38,18Z" />
      <path class="cls-4" d="M62.64,12.3a5.75,5.75,0,0,0-3.08.89,5.74,5.74,0,0,0,7.92,7.93,5.74,5.74,0,0,0-4.84-8.82Z" />
      <path class="cls-3" d="M34,11.44a3.27,3.27,0,1,1-3.27-3.27A3.27,3.27,0,0,1,34,11.44Z" />
      <path class="cls-4" d="M30.77,8.17A3.3,3.3,0,0,0,29,8.68a3.27,3.27,0,0,0,2.76,5,3.16,3.16,0,0,0,1.75-.52A3.16,3.16,0,0,0,34,11.44,3.27,3.27,0,0,0,30.77,8.17Z" />
      <path class="cls-3" d="M79.65,47a6,6,0,1,1-6-6A6,6,0,0,1,79.65,47Z" />
      <path class="cls-4" d="M73.69,41.05a5.87,5.87,0,0,0-3.21.94,6,6,0,0,0,8.23,8.23A5.89,5.89,0,0,0,79.65,47,6,6,0,0,0,73.69,41.05Z" />
      <path class="cls-3" d="M60.56,71.47a5.14,5.14,0,1,1-5.14-5.13A5.14,5.14,0,0,1,60.56,71.47Z" />
      <path class="cls-4" d="M55.42,66.34a5.06,5.06,0,0,0-2.75.8,5,5,0,0,0-.81,2.76A5.14,5.14,0,0,0,57,75a5.21,5.21,0,0,0,2.76-.8,5.14,5.14,0,0,0-4.34-7.9Z" />
   </g>
</svg>