<svg xmlns="http://www.w3.org/2000/svg" viewBox="0 0 80.57 85.53"><defs><style>.cls-1{fill:#fff;}.cls-2{fill:#98d24d;}.cls-3{fill:#00c6f4;}.cls-4{fill:#00e1ff;}.cls-5{fill:#122c3d;opacity:0.2;}</style></defs><g id="Layer_2" data-name="Layer 2"><g id="Weather_Icons" data-name="Weather Icons"><path class="cls-1" d="M42.1,1.57V1.41h0a1.55,1.55,0,0,0-3.09,0h0v.16h0V72.35H42.1V1.58h0Z"/><path class="cls-2" d="M39,72.35v5.41a4.36,4.36,0,1,1-8.71,0,1.57,1.57,0,1,0-3.14,0h0a7.51,7.51,0,1,0,15,0V72.35Z"/><path class="cls-3" d="M80.57,38C78.27,18.85,61.16,4,40.36,3.93c18,5.63,20.21,34.73,20.22,34.93h.1A10.24,10.24,0,0,1,80.57,38Z"/><path class="cls-4" d="M20.09,38.86c0-.2,2.21-29.3,20.22-34.93C19.32,3.93,2.08,19.08,0,38.47a10.23,10.23,0,0,1,20,.39Z"/><path class="cls-4" d="M40.36,3.93H40.3V38.86h.14a10.22,10.22,0,0,1,20.06,0h.08C60.57,38.66,58.36,9.56,40.36,3.93Z"/><path class="cls-3" d="M20.09,38.86h.1a10.22,10.22,0,0,1,20.06,0h0V3.94C22.3,9.56,20.1,38.66,20.09,38.86Z"/><path class="cls-5" d="M40.36,2.74h0c-.46,0-.91,0-1.36,0V4c.46,0,.9-.07,1.35-.07h.06c.59,0,1.16.06,1.74.09V2.78C41.52,2.76,41,2.74,40.36,2.74Z"/><path class="cls-5" d="M42.1,44.4V35a10.2,10.2,0,0,0-1.66,3.83h-.19A9.93,9.93,0,0,0,39,35.57v5.69Z"/></g></g></svg>