<svg xmlns="http://www.w3.org/2000/svg" viewBox="0 0 65.35 49.63"><defs><style>.cls-1{fill:#00e1ff;}.cls-2{fill:#98d24d;}.cls-3{fill:#83ba36;}</style></defs><g id="Layer_2" data-name="Layer 2"><g id="Weather_Icons" data-name="Weather Icons"><rect class="cls-1" y="13.04" width="35.32" height="4.3" rx="1.03"/><rect class="cls-1" y="37.7" width="35.32" height="4.3" rx="1.03"/><rect class="cls-1" x="17.62" y="25.25" width="23.89" height="4.29" rx="1.03"/><path class="cls-2" d="M58.88,1.84a7.33,7.33,0,0,0-3.52,1.3l-.15-.35c-.58.16-1.84.65-1.84.65V2.93c-.84.25-2.15,1.95-2.53,1.95-.94-1.66-1.64-1.78-1.64-1.78L49,4.46A10.21,10.21,0,0,0,45.08,0a19.39,19.39,0,0,0-.36,4.43L44,4a7.28,7.28,0,0,0,0,3.09,10.15,10.15,0,0,0-1.67-.47A3.91,3.91,0,0,0,42.89,9a7.63,7.63,0,0,0-1.54-.11,3.77,3.77,0,0,0-2.84,1.08l.33.87c1,2.79,2.93,3,2.93,3l-1.26.06a3.06,3.06,0,0,0,2.82,1.66l-1,.31a4.1,4.1,0,0,0,3.07,1.52l-.56.39c.42.4,1.52.36,2.2.35l13-16.4Z"/><path class="cls-3" d="M57.63,21.62a6.76,6.76,0,0,0-.48-1.47,3.93,3.93,0,0,0,2.39-.07,10.52,10.52,0,0,0-.84-1.52,7.24,7.24,0,0,0,3-.7l-.57-.57a19.41,19.41,0,0,0,4.22-1.41,10.45,10.45,0,0,0-5.27-2.72l1.27-.55s-.29-.65-2.12-1.17c-.09-.36,1.25-2,1.29-2.92L60,8.66s.18-1.35.19-1.95l-.37-.06a7.55,7.55,0,0,0,.43-3.73l-.19-1.19-.29.36.28-.36-13,16.4A24,24,0,0,1,43.37,20a9.13,9.13,0,0,1-4,1,.32.32,0,0,0-.25.44s0,.42.52.4a12.2,12.2,0,0,0,5.1-1.76c1-.56,2-1,2.67-1.45a2.91,2.91,0,0,0,.78,1.66l.24-.63a4.08,4.08,0,0,0,2.2,2.62l.07-1a3.06,3.06,0,0,0,2.28,2.34l-.24-1.23s.7,1.85,3.64,2.12l.93.11A3.8,3.8,0,0,0,57.63,21.62Z"/><path class="cls-3" d="M43.44,40.37c-.14,6.18,6.65,7.31,7.37,7.46,2.28.36,11.94,1.56,12.82,1.8a58.58,58.58,0,0,0-19.21-13A8.57,8.57,0,0,0,43.44,40.37Z"/><path class="cls-2" d="M36.82,35.1a16.34,16.34,0,0,1,7.6,1.52,58.58,58.58,0,0,1,19.21,13,15.7,15.7,0,0,1-1.05-4.78A15.53,15.53,0,0,0,59.4,37c-7.14-7.21-14-1.31-14.81-.73-4.81-2-8-1.52-8-1.52s-.21,0-.17.2S36.64,35.11,36.82,35.1Z"/></g></g></svg>