<svg xmlns="http://www.w3.org/2000/svg" viewBox="0 0 89.59 75.93"><defs><style>.cls-1{fill:#ffda24;}.cls-2{fill:#ffa300;}.cls-3,.cls-4{fill:#fff;}.cls-3{opacity:0.15;}.cls-5{fill:#f2f4f9;}</style></defs><g id="Layer_2" data-name="Layer 2"><g id="Weather_Icons" data-name="Weather Icons"><path class="cls-1" d="M82.56,37.76A30.73,30.73,0,1,1,51.84,7,30.72,30.72,0,0,1,82.56,37.76Z"/><path class="cls-1" d="M26.54,9.66l-2.8,2.8a3.73,3.73,0,0,0,0,5.25l2.73,2.72a30.78,30.78,0,0,1,8-8L31.79,9.66A3.71,3.71,0,0,0,26.54,9.66Zm50.6,0a3.74,3.74,0,0,0-5.26,0l-2.72,2.72a31,31,0,0,1,8,8l2.72-2.72a3.71,3.71,0,0,0,0-5.25ZM53.81,0H49.87a3.73,3.73,0,0,0-3.73,3.72V7.58a29.76,29.76,0,0,1,11.39,0V3.72A3.73,3.73,0,0,0,53.81,0Zm-36,32.06a3.73,3.73,0,0,0-3.72,3.72v3.95a3.73,3.73,0,0,0,3.72,3.72h3.85a30.3,30.3,0,0,1,0-11.39Zm59.41,23a30.81,30.81,0,0,1-8,8.05l2.72,2.72a3.74,3.74,0,0,0,5.26,0l2.79-2.79a3.72,3.72,0,0,0,0-5.26Zm8.66-23H82a30.3,30.3,0,0,1,0,11.39h3.85a3.73,3.73,0,0,0,3.72-3.72V35.78A3.73,3.73,0,0,0,85.87,32.06Zm-59.41,23L23.74,57.8a3.74,3.74,0,0,0,0,5.26l2.8,2.79a3.71,3.71,0,0,0,5.25,0l2.72-2.72A31,31,0,0,1,26.46,55.08ZM46.14,67.94V71.8a3.73,3.73,0,0,0,3.73,3.71h3.94a3.72,3.72,0,0,0,3.72-3.71V67.94a29.76,29.76,0,0,1-11.39,0Z"/><path class="cls-2" d="M46.14,6V7.58a29.76,29.76,0,0,1,11.39,0V6A30.86,30.86,0,0,0,46.14,6ZM77.21,20.43l1.13-1.13a32.41,32.41,0,0,0-8-8l-1.13,1.13A31,31,0,0,1,77.21,20.43ZM20.05,32.06a30.86,30.86,0,0,0,0,11.39h1.6a30.3,30.3,0,0,1,0-11.39ZM69.16,63.13l1.13,1.13a32.24,32.24,0,0,0,8-8.05l-1.13-1.13A30.81,30.81,0,0,1,69.16,63.13ZM83.62,32.06H82a30.3,30.3,0,0,1,0,11.39h1.6a30.86,30.86,0,0,0,0-11.39ZM46.14,67.94v1.6a30.86,30.86,0,0,0,11.39,0v-1.6a29.76,29.76,0,0,1-11.39,0ZM26.46,55.08l-1.13,1.13a32.41,32.41,0,0,0,8.05,8.05l1.13-1.13A31,31,0,0,1,26.46,55.08ZM25.33,19.3l1.14,1.13a30.78,30.78,0,0,1,8-8l-1.13-1.13A32.58,32.58,0,0,0,25.33,19.3Z"/><path class="cls-3" d="M71.88,9.66l-2.72,2.72a30.46,30.46,0,0,0-11.63-4.8V3.72A3.73,3.73,0,0,0,53.81,0H49.87a3.73,3.73,0,0,0-3.73,3.72V7.58a30.46,30.46,0,0,0-11.63,4.8L31.79,9.66a3.71,3.71,0,0,0-5.25,0l-2.8,2.8a3.73,3.73,0,0,0,0,5.25l2.73,2.72a30.49,30.49,0,0,0-4.82,11.63H17.8a3.73,3.73,0,0,0-3.72,3.72v3.95a3.73,3.73,0,0,0,3.72,3.72h3.85a30.63,30.63,0,0,0,4.81,11.63L23.74,57.8a3.74,3.74,0,0,0,0,5.26l1.62,1.61L78.75,11.28,77.14,9.66A3.74,3.74,0,0,0,71.88,9.66Z"/><path class="cls-4" d="M48.1,20.8A22.87,22.87,0,0,0,26.38,36.57,17.61,17.61,0,0,0,13.89,47.19a14.37,14.37,0,0,0,0,28.72v0H48.37V20.82Z"/><path class="cls-5" d="M70.76,40.85a22.82,22.82,0,0,0-22.39-20V75.93H70.12v0a17.56,17.56,0,0,0,.64-35Z"/></g></g></svg>