<svg xmlns="http://www.w3.org/2000/svg" viewBox="0 0 86.93 77.39"><defs><style>.cls-1{fill:#fff;}.cls-2{fill:#f2f4f9;}.cls-3{fill:#00e1ff;}.cls-4{fill:#00c6f4;}.cls-5{fill:#122c3d;opacity:0.2;}</style></defs><g id="Layer_2" data-name="Layer 2"><g id="Weather_Icons" data-name="Weather Icons"><path class="cls-1" d="M48.1,0A22.87,22.87,0,0,0,26.38,15.77,17.61,17.61,0,0,0,13.89,26.39a14.36,14.36,0,0,0,0,28.71v0H48.37V0Z"/><path class="cls-2" d="M70.76,20A22.83,22.83,0,0,0,48.37,0V55.13H70.12v0A17.56,17.56,0,0,0,70.76,20Z"/><path class="cls-3" d="M29.55,44.11,15.66,47.83l-1.18.32A9.57,9.57,0,0,0,10.71,64L30.47,44.26A.9.9,0,0,0,29.55,44.11Z"/><path class="cls-4" d="M26.57,60.25l.32-1.19,3.73-13.89a.91.91,0,0,0-.15-.91L10.71,64a9.56,9.56,0,0,0,15.86-3.77Z"/><path class="cls-3" d="M73.76,47,59.87,50.71,58.69,51a9.56,9.56,0,0,0-3.77,15.86L74.68,47.13A.93.93,0,0,0,73.76,47Z"/><path class="cls-4" d="M70.79,63.13l.31-1.19,3.73-13.89a.93.93,0,0,0-.15-.92L54.92,66.89a9.58,9.58,0,0,0,15.87-3.76Z"/><path class="cls-5" d="M30.62,45.17,28,55.13H41.34L30.47,44.26A.91.91,0,0,1,30.62,45.17Z"/><path class="cls-5" d="M74.83,48.05,73,54.71a17.73,17.73,0,0,0,6.42-2.8l-4.78-4.78A.93.93,0,0,1,74.83,48.05Z"/><path class="cls-3" d="M39.13,62.09v2.16L38,63.12a.16.16,0,0,0-.22,0l-.68.69a.16.16,0,0,0,0,.22l2,2v2.5L37,67.31l-.75-2.78a.15.15,0,0,0-.19-.11l-.93.25a.16.16,0,0,0-.11.19l.42,1.55-1.88-1.09a.16.16,0,0,0-.22.06l-.48.83a.16.16,0,0,0,.06.22l1.88,1.08-1.55.41a.17.17,0,0,0-.11.2l.25.93a.16.16,0,0,0,.19.11l2.78-.75,2.16,1.25-2.16,1.25-2.78-.74a.15.15,0,0,0-.19.11l-.25.93a.16.16,0,0,0,.11.19l1.55.41L32.89,72.9a.15.15,0,0,0-.06.21l.48.83a.16.16,0,0,0,.22.06l1.88-1.08L35,74.46a.16.16,0,0,0,.11.19l.93.25a.14.14,0,0,0,.19-.11L37,72l2.16-1.25v2.61l-2,2a.16.16,0,0,0,0,.22l.68.68a.16.16,0,0,0,.22,0l1.13-1.13v2a.16.16,0,0,0,.16.15h1a.16.16,0,0,0,.16-.15v-2l1.13,1.13a.16.16,0,0,0,.22,0l.68-.68a.16.16,0,0,0,0-.22l-2-2V70.77l2.26,1.31.75,2.77a.15.15,0,0,0,.19.11l.93-.25a.15.15,0,0,0,.11-.19L44.23,73,46,74a.15.15,0,0,0,.21-.06l.49-.83a.16.16,0,0,0-.06-.21l-1.78-1,1.55-.41a.16.16,0,0,0,.11-.19l-.25-.93a.15.15,0,0,0-.19-.11L43.31,71l-2.26-1.31,2.26-1.31,2.78.75a.16.16,0,0,0,.19-.11l.25-.93a.17.17,0,0,0-.11-.2l-1.55-.41,1.78-1a.17.17,0,0,0,.06-.22l-.49-.83a.15.15,0,0,0-.21-.06l-1.78,1,.42-1.55a.16.16,0,0,0-.11-.19l-.93-.25a.16.16,0,0,0-.19.11l-.75,2.78-2.26,1.31v-2.5l2-2a.16.16,0,0,0,0-.22l-.68-.69a.16.16,0,0,0-.22,0l-1.13,1.13V62.09"/></g></g></svg>