<svg xmlns="http://www.w3.org/2000/svg" viewBox="0 0 88.65 93.26"><defs><style>.cls-1{fill:#c6c5a3;}.cls-2{fill:#d1d1b0;}.cls-3{fill:#b7b284;}.cls-4{fill:#c1be99;}.cls-5{fill:#fff;}.cls-6{fill:#f2f4f9;}.cls-7{fill:#00e1ff;}.cls-8{fill:#00c6f4;}.cls-9{fill:#122c3d;opacity:0.2;}</style></defs><g id="Layer_2" data-name="Layer 2"><g id="Weather_Icons" data-name="Weather Icons"><path class="cls-1" d="M88.65,36.67A36.67,36.67,0,1,1,52,0,36.68,36.68,0,0,1,88.65,36.67Z"/><path class="cls-2" d="M52,0A36.48,36.48,0,0,0,32.29,5.74,36.67,36.67,0,0,0,82.91,56.37,36.67,36.67,0,0,0,52,0Z"/><path class="cls-3" d="M35.2,32.15a6.88,6.88,0,1,1-6.87-6.87A6.87,6.87,0,0,1,35.2,32.15Z"/><path class="cls-4" d="M28.33,25.28a6.87,6.87,0,0,0-3.7,1.07,6.88,6.88,0,0,0,5.8,10.57,6.82,6.82,0,0,0,3.69-1.08,6.76,6.76,0,0,0,1.08-3.69A6.87,6.87,0,0,0,28.33,25.28Z"/><path class="cls-3" d="M63.28,35.11a9.63,9.63,0,1,1-9.63-9.64A9.63,9.63,0,0,1,63.28,35.11Z"/><path class="cls-4" d="M53.65,25.47A9.61,9.61,0,0,0,48.48,27a9.63,9.63,0,0,0,13.3,13.3,9.64,9.64,0,0,0-8.13-14.81Z"/><path class="cls-3" d="M40.73,55.7a4,4,0,1,1-4-4A4,4,0,0,1,40.73,55.7Z"/><path class="cls-4" d="M36.71,51.67a4,4,0,0,0-2.17.63,4.1,4.1,0,0,0-.62,2.16,4,4,0,0,0,6.18,3.4,4,4,0,0,0-3.39-6.19Z"/><path class="cls-3" d="M74.12,15.51a4.94,4.94,0,1,1-4.93-4.93A4.93,4.93,0,0,1,74.12,15.51Z"/><path class="cls-4" d="M69.19,10.58a4.87,4.87,0,0,0-2.65.77A4.88,4.88,0,0,0,65.76,14a4.94,4.94,0,0,0,7.59,4.17,4.94,4.94,0,0,0-4.16-7.59Z"/><path class="cls-3" d="M44.58,9.84A2.81,2.81,0,1,1,41.77,7,2.81,2.81,0,0,1,44.58,9.84Z"/><path class="cls-4" d="M41.77,7a2.75,2.75,0,0,0-1.5.44,2.81,2.81,0,0,0,3.88,3.88,2.86,2.86,0,0,0,.43-1.51A2.81,2.81,0,0,0,41.77,7Z"/><path class="cls-3" d="M83.82,40.44a5.13,5.13,0,1,1-5.13-5.13A5.13,5.13,0,0,1,83.82,40.44Z"/><path class="cls-4" d="M78.69,35.31a5,5,0,0,0-2.75.81,5,5,0,0,0-.8,2.75A5.13,5.13,0,0,0,80.26,44,5.18,5.18,0,0,0,83,43.2a5.14,5.14,0,0,0-4.33-7.89Z"/><path class="cls-3" d="M67.4,61.48A4.42,4.42,0,1,1,63,57.06,4.42,4.42,0,0,1,67.4,61.48Z"/><path class="cls-4" d="M63,57.06a4.44,4.44,0,0,0-2.37.69,4.43,4.43,0,0,0,3.73,6.8,4.47,4.47,0,0,0,2.37-.69A4.43,4.43,0,0,0,63,57.06Z"/><path class="cls-5" d="M48.1,19.82A22.87,22.87,0,0,0,26.38,35.58,17.6,17.6,0,0,0,13.89,46.21a14.36,14.36,0,0,0,0,28.71v0H48.37V19.83Z"/><path class="cls-6" d="M70.76,39.86a22.83,22.83,0,0,0-22.39-20V74.94H70.12v0a17.56,17.56,0,0,0,.64-35Z"/><path class="cls-7" d="M29.55,63.92,15.66,67.65,14.48,68a9.56,9.56,0,0,0-3.77,15.86L30.47,64.07A.92.92,0,0,0,29.55,63.92Z"/><path class="cls-8" d="M26.57,80.07l.32-1.19L30.62,65a.93.93,0,0,0-.15-.92L10.71,83.83a9.56,9.56,0,0,0,15.86-3.76Z"/><path class="cls-7" d="M73.76,66.79,59.87,70.53l-1.18.31a9.58,9.58,0,0,0-3.77,15.87L74.68,67A.93.93,0,0,0,73.76,66.79Z"/><path class="cls-8" d="M70.79,82.94l.31-1.19,3.73-13.88a.92.92,0,0,0-.15-.92L54.92,86.71a9.58,9.58,0,0,0,13.55,0A9.69,9.69,0,0,0,70.79,82.94Z"/><path class="cls-7" d="M43.93,79.48,35.5,81.74l-.72.19a5.73,5.73,0,0,0-2.29,1.41,5.81,5.81,0,0,0,0,8.22l12-12A.55.55,0,0,0,43.93,79.48Z"/><path class="cls-8" d="M42.12,89.27l.19-.72,2.26-8.43a.55.55,0,0,0-.08-.55l-12,12a5.81,5.81,0,0,0,9.63-2.29Z"/><path class="cls-9" d="M30.62,65,28,74.94H41.34L30.47,64.07A.93.93,0,0,1,30.62,65Z"/><path class="cls-9" d="M74.83,67.87,73,74.52a17.54,17.54,0,0,0,6.42-2.79L74.68,67A.92.92,0,0,1,74.83,67.87Z"/></g></g></svg>