<svg xmlns="http://www.w3.org/2000/svg" viewBox="0 0 89.59 94.25"><defs><style>.cls-1{fill:#ffda24;}.cls-2{fill:#ffa300;}.cls-3,.cls-4{fill:#fff;}.cls-3{opacity:0.15;}.cls-5{fill:#f2f4f9;}.cls-6{fill:#00e1ff;}.cls-7{fill:#00c6f4;}.cls-8{fill:#122c3d;opacity:0.2;}</style></defs><g id="Layer_2" data-name="Layer 2"><g id="Weather_Icons" data-name="Weather Icons"><path class="cls-1" d="M82.57,37.76A30.73,30.73,0,1,1,51.83,7,30.73,30.73,0,0,1,82.57,37.76Z"/><path class="cls-1" d="M26.53,9.66l-2.79,2.8a3.73,3.73,0,0,0,0,5.25l2.72,2.72a31,31,0,0,1,8-8L31.79,9.66A3.72,3.72,0,0,0,26.53,9.66Zm50.61,0a3.74,3.74,0,0,0-5.26,0l-2.72,2.72a31,31,0,0,1,8,8l2.72-2.72a3.71,3.71,0,0,0,0-5.25ZM53.81,0h-4a3.73,3.73,0,0,0-3.72,3.72V7.58a29.76,29.76,0,0,1,11.39,0V3.72A3.73,3.73,0,0,0,53.81,0Zm-36,32.06a3.73,3.73,0,0,0-3.72,3.72v3.95a3.73,3.73,0,0,0,3.72,3.72h3.85a30.3,30.3,0,0,1,0-11.39Zm59.41,23a30.81,30.81,0,0,1-8,8.05l2.72,2.72a3.74,3.74,0,0,0,5.26,0l2.79-2.79a3.72,3.72,0,0,0,0-5.26Zm8.66-23H82a29.76,29.76,0,0,1,0,11.39h3.85a3.73,3.73,0,0,0,3.72-3.72V35.78A3.73,3.73,0,0,0,85.87,32.06Zm-59.41,23L23.74,57.8a3.74,3.74,0,0,0,0,5.26l2.79,2.79a3.72,3.72,0,0,0,5.26,0l2.72-2.72A31,31,0,0,1,26.46,55.08ZM46.14,67.94V71.8a3.73,3.73,0,0,0,3.72,3.71h4a3.72,3.72,0,0,0,3.72-3.71V67.94a29.76,29.76,0,0,1-11.39,0Z"/><path class="cls-2" d="M46.14,6V7.58a29.76,29.76,0,0,1,11.39,0V6A30.86,30.86,0,0,0,46.14,6ZM77.21,20.43l1.13-1.13a32.24,32.24,0,0,0-8-8l-1.13,1.13A31,31,0,0,1,77.21,20.43ZM20.05,32.06a30.86,30.86,0,0,0,0,11.39h1.6a30.3,30.3,0,0,1,0-11.39ZM69.16,63.13l1.13,1.13a32.08,32.08,0,0,0,8-8.05l-1.13-1.13A30.81,30.81,0,0,1,69.16,63.13ZM83.62,32.06H82a29.76,29.76,0,0,1,0,11.39h1.6a30.86,30.86,0,0,0,0-11.39ZM46.14,67.94v1.6a30.86,30.86,0,0,0,11.39,0v-1.6a29.76,29.76,0,0,1-11.39,0ZM26.46,55.08l-1.13,1.13a32.24,32.24,0,0,0,8.05,8.05l1.13-1.13A31,31,0,0,1,26.46,55.08ZM25.33,19.3l1.13,1.13a31,31,0,0,1,8-8l-1.13-1.13A32.41,32.41,0,0,0,25.33,19.3Z"/><path class="cls-3" d="M71.88,9.66l-2.72,2.72a30.46,30.46,0,0,0-11.63-4.8V3.72A3.73,3.73,0,0,0,53.81,0h-4a3.73,3.73,0,0,0-3.72,3.72V7.58a30.46,30.46,0,0,0-11.63,4.8L31.79,9.66a3.72,3.72,0,0,0-5.26,0l-2.79,2.8a3.73,3.73,0,0,0,0,5.25l2.72,2.72a30.63,30.63,0,0,0-4.81,11.63H17.8a3.73,3.73,0,0,0-3.72,3.72v3.95a3.73,3.73,0,0,0,3.72,3.72h3.85a30.63,30.63,0,0,0,4.81,11.63L23.74,57.8a3.74,3.74,0,0,0,0,5.26l1.62,1.61L78.75,11.28,77.14,9.66A3.74,3.74,0,0,0,71.88,9.66Z"/><path class="cls-4" d="M48.1,20.8A22.87,22.87,0,0,0,26.38,36.57,17.61,17.61,0,0,0,13.89,47.19a14.37,14.37,0,0,0,0,28.72v0H48.37V20.82Z"/><path class="cls-5" d="M70.76,40.85a22.82,22.82,0,0,0-22.39-20V75.93H70.12v0a17.56,17.56,0,0,0,.64-35Z"/><path class="cls-6" d="M29.55,64.91,15.66,68.64,14.48,69a9.43,9.43,0,0,0-3.77,2.31,9.58,9.58,0,0,0,0,13.55L30.47,65.06A.92.92,0,0,0,29.55,64.91Z"/><path class="cls-7" d="M26.57,81.05l.32-1.19L30.62,66a.91.91,0,0,0-.15-.91L10.71,84.82a9.56,9.56,0,0,0,15.86-3.77Z"/><path class="cls-6" d="M73.76,67.78,59.87,71.51l-1.18.32a9.56,9.56,0,0,0-3.77,15.86L74.68,67.94A.9.9,0,0,0,73.76,67.78Z"/><path class="cls-7" d="M70.79,83.93l.31-1.19,3.73-13.89a.91.91,0,0,0-.15-.91L54.92,87.69a9.58,9.58,0,0,0,15.87-3.76Z"/><path class="cls-6" d="M43.93,80.46,35.5,82.73l-.72.19a5.71,5.71,0,0,0-2.29,1.4,5.82,5.82,0,0,0,0,8.23l12-12A.58.58,0,0,0,43.93,80.46Z"/><path class="cls-7" d="M42.12,90.26l.19-.72,2.26-8.43a.55.55,0,0,0-.08-.55l-12,12a5.81,5.81,0,0,0,9.63-2.29Z"/><path class="cls-8" d="M30.62,66,28,75.93H41.34L30.47,65.06A.91.91,0,0,1,30.62,66Z"/><path class="cls-8" d="M74.83,68.85,73,75.51a17.54,17.54,0,0,0,6.42-2.79l-4.78-4.78A.91.91,0,0,1,74.83,68.85Z"/></g></g></svg>