<svg xmlns="http://www.w3.org/2000/svg" viewBox="0 0 86.93 73.45"><defs><style>.cls-1{fill:#fff;}.cls-2{fill:#f2f4f9;}.cls-3{fill:#00e1ff;}.cls-4{fill:#00c6f4;}.cls-5{fill:#122c3d;opacity:0.2;}</style></defs><g id="Layer_2" data-name="Layer 2"><g id="Weather_Icons" data-name="Weather Icons"><path class="cls-1" d="M48.1,0A22.87,22.87,0,0,0,26.38,15.77,17.61,17.61,0,0,0,13.89,26.39a14.36,14.36,0,0,0,0,28.71v0H48.37V0Z"/><path class="cls-2" d="M70.76,20A22.83,22.83,0,0,0,48.37,0V55.13H70.12v0A17.56,17.56,0,0,0,70.76,20Z"/><path class="cls-3" d="M29.55,44.11,15.66,47.83l-1.18.32A9.57,9.57,0,0,0,10.71,64L30.47,44.26A.9.9,0,0,0,29.55,44.11Z"/><path class="cls-4" d="M26.57,60.25l.32-1.19,3.73-13.89a.91.91,0,0,0-.15-.91L10.71,64a9.56,9.56,0,0,0,15.86-3.77Z"/><path class="cls-3" d="M73.76,47,59.87,50.71,58.69,51a9.56,9.56,0,0,0-3.77,15.86L74.68,47.13A.93.93,0,0,0,73.76,47Z"/><path class="cls-4" d="M70.79,63.13l.31-1.19,3.73-13.89a.93.93,0,0,0-.15-.92L54.92,66.89a9.58,9.58,0,0,0,15.87-3.76Z"/><path class="cls-3" d="M43.93,59.66,35.5,61.92l-.72.19a5.73,5.73,0,0,0-2.29,1.41,5.82,5.82,0,0,0,0,8.23l12-12A.58.58,0,0,0,43.93,59.66Z"/><path class="cls-4" d="M42.12,69.46l.19-.72,2.26-8.43a.58.58,0,0,0-.08-.56l-12,12a5.81,5.81,0,0,0,9.63-2.29Z"/><path class="cls-5" d="M30.62,45.17,28,55.13H41.34L30.47,44.26A.91.91,0,0,1,30.62,45.17Z"/><path class="cls-5" d="M74.83,48.05,73,54.71a17.73,17.73,0,0,0,6.42-2.8l-4.78-4.78A.93.93,0,0,1,74.83,48.05Z"/></g></g></svg>