<svg xmlns="http://www.w3.org/2000/svg" viewBox="0 0 90.69 74.05"><defs><style>.cls-1{fill:#fff;}.cls-2{fill:#f2f4f9;}.cls-3{fill:#00e1ff;}.cls-4{fill:#00c6f4;}.cls-5{fill:#122c3d;opacity:0.2;}</style></defs><g id="Layer_2" data-name="Layer 2"><g id="Weather_Icons" data-name="Weather Icons"><path class="cls-1" d="M50.18,0A23.84,23.84,0,0,0,27.52,16.45a18.35,18.35,0,0,0-13,11.08,15,15,0,0,0,0,30v0h36V0Z"/><path class="cls-2" d="M73.82,20.91A23.82,23.82,0,0,0,50.46,0v57.5H73.15v0a18.32,18.32,0,0,0,.67-36.56Z"/><path class="cls-3" d="M77,49,62.46,52.9l-1.23.33a10.11,10.11,0,0,0-3.94,2.42,10,10,0,0,0,0,14.13L77.91,49.17A1,1,0,0,0,77,49Z"/><path class="cls-4" d="M73.84,65.86l.33-1.24,3.9-14.49a1,1,0,0,0-.16-1L57.29,69.78a10,10,0,0,0,16.55-3.92Z"/><path class="cls-5" d="M78.07,50.13,76.2,57.07a18.19,18.19,0,0,0,6.69-2.91l-5-5A1,1,0,0,1,78.07,50.13Z"/><path class="cls-3" d="M33.56,65.22l-3.49-2,3-.81a.32.32,0,0,0,.22-.38l-.5-1.82a.29.29,0,0,0-.37-.22L27,61.44l-4.45-2.57L27,56.3l5.46,1.46a.29.29,0,0,0,.37-.22l.5-1.82a.32.32,0,0,0-.22-.38l-3-.81,3.49-2a.3.3,0,0,0,.11-.42l-.94-1.64a.3.3,0,0,0-.42-.11l-3.49,2,.81-3a.3.3,0,0,0-.21-.38l-1.83-.49a.32.32,0,0,0-.38.22l-1.46,5.45L21.3,56.7V51.8l4-4a.3.3,0,0,0,0-.43L24,46a.31.31,0,0,0-.44,0L21.3,48.25V44a.3.3,0,0,0-.31-.3H19.1a.29.29,0,0,0-.3.3v4.26L16.57,46a.3.3,0,0,0-.43,0L14.8,47.37a.3.3,0,0,0,0,.43l4,4v4.9l-4.25-2.45-1.46-5.46a.31.31,0,0,0-.38-.21l-1.83.49a.29.29,0,0,0-.21.37l.81,3L7.79,50.35a.3.3,0,0,0-.42.11L6.43,52.1a.3.3,0,0,0,.11.42l3.69,2.13-3,.81a.3.3,0,0,0-.21.38l.49,1.82a.31.31,0,0,0,.37.22l5.46-1.46,4.24,2.45L13.3,61.32,7.84,59.86a.3.3,0,0,0-.37.22L7,61.9a.3.3,0,0,0,.21.38l3,.81L6.54,65.22a.3.3,0,0,0-.11.42l.94,1.64a.3.3,0,0,0,.42.11l3.69-2.13-.81,3a.29.29,0,0,0,.21.37l1.83.49a.31.31,0,0,0,.38-.21l1.46-5.46L18.8,61v5.14l-4,4a.3.3,0,0,0,0,.43l1.34,1.34a.3.3,0,0,0,.43,0l2.23-2.22v4a.29.29,0,0,0,.3.3H21a.3.3,0,0,0,.31-.3v-4l2.22,2.22a.31.31,0,0,0,.44,0l1.33-1.34a.3.3,0,0,0,0-.43l-4-4V61l4.45,2.57,1.46,5.45a.32.32,0,0,0,.38.22l1.83-.49a.29.29,0,0,0,.21-.37l-.81-3,3.49,2a.3.3,0,0,0,.42-.11l.94-1.64A.3.3,0,0,0,33.56,65.22Z"/><path class="cls-5" d="M27.07,49.19l-1.71-1.71,0,0a.27.27,0,0,1,0,.34l-4,4v4.9l4.45-2.57ZM11,57a14.78,14.78,0,0,0,3.14.46v0h1l-1.9-1.09Zm3.53-2.78L18.8,56.7V54.54l-5.7-5.69Zm6.75-6,2.15-2.15-2.18-2.18a.15.15,0,0,1,0,.07Zm18.48,9.26-7.05-7,.94,1.64a.3.3,0,0,1-.11.42l-3.49,2,3,.81a.32.32,0,0,1,.22.38l-.49,1.79Zm-8.39-6.64-1.81-1.81h0a.32.32,0,0,1,.06.27l-.81,3ZM24.9,57.51h6.64L27,56.3Z"/></g></g></svg>