<svg xmlns="http://www.w3.org/2000/svg" viewBox="0 0 90.69 82"><defs><style>.cls-1{fill:#fff;}.cls-2{fill:#f2f4f9;}.cls-3{fill:#00e1ff;}.cls-4{fill:#122c3d;opacity:0.2;}</style></defs><g id="Layer_2" data-name="Layer 2"><g id="Weather_Icons" data-name="Weather Icons"><path class="cls-1" d="M50.18,0A23.84,23.84,0,0,0,27.52,16.45a18.37,18.37,0,0,0-13,11.08,15,15,0,0,0,0,30v0h36V0Z"/><path class="cls-2" d="M73.82,20.91A23.82,23.82,0,0,0,50.46,0v57.5H73.15v0a18.32,18.32,0,0,0,.67-36.56Z"/><path class="cls-3" d="M49.69,77.5l-1.78-1,1.55-.42a.15.15,0,0,0,.11-.19l-.25-.93a.16.16,0,0,0-.19-.11l-2.78.75-2.26-1.31L46.35,73l2.78.74a.15.15,0,0,0,.19-.11l.25-.93a.16.16,0,0,0-.11-.19l-1.55-.41,1.78-1a.15.15,0,0,0,.06-.21L49.27,70a.16.16,0,0,0-.22,0l-1.77,1,.41-1.54a.15.15,0,0,0-.11-.19L46.65,69a.15.15,0,0,0-.19.11l-.75,2.77-2.26,1.31v-2.5l2-2a.16.16,0,0,0,0-.22l-.68-.68a.16.16,0,0,0-.22,0l-1.13,1.13V66.69a.16.16,0,0,0-.16-.16h-1a.16.16,0,0,0-.16.16v2.17L41,67.73a.16.16,0,0,0-.22,0l-.68.68a.16.16,0,0,0,0,.22l2,2v2.5L40,71.91l-.74-2.77a.15.15,0,0,0-.2-.11l-.93.25a.15.15,0,0,0-.11.19L38.45,71l-1.88-1.08a.15.15,0,0,0-.21,0l-.49.84a.16.16,0,0,0,.06.21l1.88,1.09-1.55.41a.16.16,0,0,0-.11.19l.25.93a.16.16,0,0,0,.19.11L39.37,73l2.17,1.25-2.17,1.25-2.78-.75a.16.16,0,0,0-.19.11l-.25.93a.15.15,0,0,0,.11.19l1.55.42L35.93,77.5a.17.17,0,0,0-.06.22l.49.83a.15.15,0,0,0,.21.06l1.88-1.09L38,79.07a.16.16,0,0,0,.11.19l.93.25a.17.17,0,0,0,.2-.11L40,76.62l2.16-1.25V78l-2,2a.16.16,0,0,0,0,.22l.68.68a.14.14,0,0,0,.22,0l1.13-1.13v2a.16.16,0,0,0,.16.16h1a.16.16,0,0,0,.16-.16v-2l1.13,1.13a.14.14,0,0,0,.22,0l.68-.68a.16.16,0,0,0,0-.22l-2-2V75.37l2.26,1.31.75,2.78a.16.16,0,0,0,.19.11l.93-.25a.16.16,0,0,0,.11-.19l-.41-1.55,1.77,1a.16.16,0,0,0,.22-.06l.48-.83A.16.16,0,0,0,49.69,77.5Z"/><path class="cls-3" d="M33.85,65.22l-3.49-2,3-.81a.31.31,0,0,0,.21-.38l-.49-1.82a.29.29,0,0,0-.37-.22l-5.46,1.46-4.45-2.57,4.45-2.57,5.46,1.46a.29.29,0,0,0,.37-.22l.49-1.82a.31.31,0,0,0-.21-.38l-3-.81,3.49-2A.31.31,0,0,0,34,52.1l-1-1.64a.29.29,0,0,0-.41-.11l-3.49,2,.81-3a.3.3,0,0,0-.21-.38l-1.83-.49a.32.32,0,0,0-.38.22L26,54.13,21.59,56.7V51.8l4-4a.3.3,0,0,0,0-.43L24.25,46a.31.31,0,0,0-.44,0l-2.22,2.22V44a.3.3,0,0,0-.31-.3H19.39a.29.29,0,0,0-.3.3v4.26L16.86,46a.3.3,0,0,0-.43,0l-1.34,1.34a.3.3,0,0,0,0,.43l4,4v4.9l-4.25-2.45-1.46-5.46a.31.31,0,0,0-.38-.21l-1.82.49a.29.29,0,0,0-.22.37l.81,3L8.08,50.35a.3.3,0,0,0-.42.11l-1,1.64a.31.31,0,0,0,.12.42l3.69,2.13-3,.81a.3.3,0,0,0-.21.38l.49,1.82a.31.31,0,0,0,.37.22l5.46-1.46,4.24,2.45-4.24,2.45L8.13,59.86a.3.3,0,0,0-.37.22L7.27,61.9a.3.3,0,0,0,.21.38l3,.81L6.83,65.22a.31.31,0,0,0-.12.42l1,1.64a.3.3,0,0,0,.42.11l3.69-2.13-.81,3a.29.29,0,0,0,.22.37l1.82.49a.31.31,0,0,0,.38-.21l1.46-5.46L19.09,61v5.14l-4,4a.3.3,0,0,0,0,.43l1.34,1.34a.3.3,0,0,0,.43,0l2.23-2.22v4a.29.29,0,0,0,.3.3h1.89a.3.3,0,0,0,.31-.3v-4l2.22,2.22a.31.31,0,0,0,.44,0l1.33-1.34a.3.3,0,0,0,0-.43l-4-4V61L26,63.61l1.46,5.45a.32.32,0,0,0,.38.22l1.83-.49a.29.29,0,0,0,.21-.37l-.81-3,3.49,2a.29.29,0,0,0,.41-.11l1-1.64A.31.31,0,0,0,33.85,65.22Z"/><path class="cls-4" d="M27.36,49.19l-1.71-1.71,0,0a.27.27,0,0,1,0,.34l-4,4v4.9L26,54.13ZM11.31,57a15.44,15.44,0,0,0,3.14.46v0h1l-1.89-1.09Zm3.53-2.78,4.25,2.45V54.54l-5.7-5.69Zm6.75-6,2.15-2.15-2.18-2.18a.15.15,0,0,1,0,.07Zm18.48,9.26-7.06-7,1,1.64a.31.31,0,0,1-.11.42l-3.49,2,3,.81a.31.31,0,0,1,.21.38l-.48,1.79Zm-8.39-6.64-1.81-1.81h0a.32.32,0,0,1,.06.27l-.81,3Zm-6.49,6.64h6.64L27.29,56.3Z"/><path class="cls-3" d="M80.37,65.22l-3.48-2,3-.81a.32.32,0,0,0,.22-.38l-.49-1.82a.3.3,0,0,0-.38-.22l-5.45,1.46-4.45-2.57,4.45-2.57,5.45,1.46a.3.3,0,0,0,.38-.22l.49-1.82a.32.32,0,0,0-.22-.38l-3-.81,3.48-2a.31.31,0,0,0,.12-.42l-.95-1.64a.3.3,0,0,0-.42-.11l-3.49,2,.82-3a.31.31,0,0,0-.22-.38l-1.83-.49a.3.3,0,0,0-.37.22l-1.46,5.45L68.11,56.7V51.8l4-4a.3.3,0,0,0,0-.43L70.77,46a.3.3,0,0,0-.43,0l-2.23,2.22V44a.29.29,0,0,0-.3-.3H65.92a.3.3,0,0,0-.31.3v4.26L63.39,46A.3.3,0,0,0,63,46l-1.34,1.34a.3.3,0,0,0,0,.43l4,4v4.9l-4.25-2.45L59.9,48.79a.29.29,0,0,0-.37-.21l-1.83.49a.31.31,0,0,0-.22.37l.82,3-3.7-2.13a.29.29,0,0,0-.41.11l-.95,1.64a.32.32,0,0,0,.11.42L57,54.65l-3,.81a.31.31,0,0,0-.22.38l.49,1.82a.32.32,0,0,0,.38.22l5.45-1.46,4.25,2.45-4.25,2.45-5.45-1.46a.31.31,0,0,0-.38.22l-.49,1.82a.31.31,0,0,0,.22.38l3,.81-3.69,2.13a.32.32,0,0,0-.11.42l.95,1.64a.29.29,0,0,0,.41.11l3.7-2.13-.82,3a.31.31,0,0,0,.22.37l1.83.49A.29.29,0,0,0,59.9,69l1.46-5.46L65.61,61v5.14l-4,4a.3.3,0,0,0,0,.43L63,71.94a.3.3,0,0,0,.43,0l2.22-2.22v4a.3.3,0,0,0,.31.3h1.89a.29.29,0,0,0,.3-.3v-4l2.23,2.22a.3.3,0,0,0,.43,0l1.34-1.34a.3.3,0,0,0,0-.43l-4-4V61l4.46,2.57L74,69.06a.3.3,0,0,0,.37.22l1.83-.49a.31.31,0,0,0,.22-.37l-.82-3,3.49,2a.3.3,0,0,0,.42-.11l.95-1.64A.31.31,0,0,0,80.37,65.22Z"/><path class="cls-4" d="M71.72,57.51h1.43v0a15.79,15.79,0,0,0,1.7-.16c.54-.07,1.07-.17,1.59-.29h0l-2.66-.71Zm6.49-6.64-1.82-1.81h0a.33.33,0,0,1,.07.27l-.82,3Zm-4.32-1.68-1.72-1.71,0,0a.27.27,0,0,1,0,.17.23.23,0,0,1-.07.17l-4,4v4.9l4.46-2.57ZM56,57.51h6l-1.9-1.09Zm23.52-7,.95,1.64a.31.31,0,0,1-.12.42l-3.48,2,3,.81a.32.32,0,0,1,.22.38v0A17,17,0,0,0,81.65,55h0A16.77,16.77,0,0,0,83.09,54ZM68.11,48.25l2.16-2.15-2.19-2.18a.15.15,0,0,1,0,.07Zm-6.75,6,4.25,2.45V54.54l-5.69-5.69Z"/></g></g></svg>