<svg xmlns="http://www.w3.org/2000/svg" viewBox="0 0 90.69 105.15"><defs><style>.cls-1{fill:#ffda24;}.cls-2{fill:#ffa300;}.cls-3,.cls-4{fill:#fff;}.cls-3{opacity:0.15;}.cls-5{fill:#f2f4f9;}.cls-6{fill:#00e1ff;}.cls-7{fill:#122c3d;opacity:0.2;}</style></defs><g id="Layer_2" data-name="Layer 2"><g id="Weather_Icons" data-name="Weather Icons"><path class="cls-1" d="M81.88,37.76A30.73,30.73,0,1,1,51.15,7,30.73,30.73,0,0,1,81.88,37.76Z"/><path class="cls-1" d="M25.85,9.66l-2.79,2.8a3.71,3.71,0,0,0,0,5.25l2.72,2.72a30.81,30.81,0,0,1,8-8L31.11,9.66A3.72,3.72,0,0,0,25.85,9.66Zm50.6,0a3.74,3.74,0,0,0-5.26,0l-2.72,2.72a30.81,30.81,0,0,1,8,8l2.73-2.72a3.73,3.73,0,0,0,0-5.25ZM53.13,0h-4a3.73,3.73,0,0,0-3.72,3.72V7.58a29.71,29.71,0,0,1,11.38,0V3.72A3.72,3.72,0,0,0,53.13,0Zm-36,32.06a3.74,3.74,0,0,0-3.73,3.72v3.95a3.73,3.73,0,0,0,3.73,3.72H21a29.76,29.76,0,0,1,0-11.39Zm59.4,23a30.66,30.66,0,0,1-8,8.05l2.72,2.72a3.74,3.74,0,0,0,5.26,0l2.8-2.79a3.74,3.74,0,0,0,0-5.26Zm8.67-23H81.33a29.76,29.76,0,0,1,0,11.39h3.86a3.73,3.73,0,0,0,3.72-3.72V35.78A3.74,3.74,0,0,0,85.19,32.06Zm-59.41,23L23.06,57.8a3.72,3.72,0,0,0,0,5.26l2.79,2.79a3.72,3.72,0,0,0,5.26,0l2.72-2.72A30.81,30.81,0,0,1,25.78,55.08ZM45.46,67.94V71.8a3.72,3.72,0,0,0,3.72,3.71h4a3.72,3.72,0,0,0,3.71-3.71V67.94a29.71,29.71,0,0,1-11.38,0Z"/><path class="cls-2" d="M45.46,6V7.58a29.71,29.71,0,0,1,11.38,0V6A30.81,30.81,0,0,0,45.46,6ZM76.52,20.43l1.14-1.13a32.41,32.41,0,0,0-8-8l-1.14,1.13A30.81,30.81,0,0,1,76.52,20.43ZM19.37,32.06a30.86,30.86,0,0,0,0,11.39H21a29.76,29.76,0,0,1,0-11.39Zm49.1,31.07,1.14,1.13a32.24,32.24,0,0,0,8-8.05l-1.14-1.13A30.66,30.66,0,0,1,68.47,63.13ZM82.93,32.06h-1.6a29.76,29.76,0,0,1,0,11.39h1.6a32.37,32.37,0,0,0,.54-5.69A32.39,32.39,0,0,0,82.93,32.06ZM45.46,67.94v1.6a30.81,30.81,0,0,0,11.38,0v-1.6a29.71,29.71,0,0,1-11.38,0ZM25.78,55.08l-1.13,1.13a32.2,32.2,0,0,0,8,8.05l1.14-1.13A30.81,30.81,0,0,1,25.78,55.08ZM24.65,19.3l1.13,1.13a30.81,30.81,0,0,1,8-8l-1.14-1.13A32.37,32.37,0,0,0,24.65,19.3Z"/><path class="cls-3" d="M71.19,9.66l-2.72,2.72a30.39,30.39,0,0,0-11.63-4.8V3.72A3.72,3.72,0,0,0,53.13,0h-4a3.73,3.73,0,0,0-3.72,3.72V7.58a30.46,30.46,0,0,0-11.63,4.8L31.11,9.66a3.72,3.72,0,0,0-5.26,0l-2.79,2.8a3.71,3.71,0,0,0,0,5.25l2.72,2.72A30.48,30.48,0,0,0,21,32.06H17.12a3.74,3.74,0,0,0-3.73,3.72v3.95a3.73,3.73,0,0,0,3.73,3.72H21a30.48,30.48,0,0,0,4.81,11.63L23.06,57.8a3.72,3.72,0,0,0,0,5.26l1.61,1.61,53.4-53.39L76.45,9.66A3.74,3.74,0,0,0,71.19,9.66Z"/><path class="cls-4" d="M50.18,23.15A23.84,23.84,0,0,0,27.52,39.61a18.35,18.35,0,0,0-13,11.08,15,15,0,0,0,0,30v0h36V23.17Z"/><path class="cls-5" d="M73.82,44.07a23.82,23.82,0,0,0-23.36-20.9v57.5H73.15v0a18.31,18.31,0,0,0,.67-36.55Z"/><path class="cls-6" d="M49.69,100.66l-1.77-1,1.54-.41a.16.16,0,0,0,.11-.19l-.25-.93a.15.15,0,0,0-.19-.11l-2.78.74-2.26-1.31,2.26-1.31,2.78.75a.16.16,0,0,0,.19-.11l.25-.93a.17.17,0,0,0-.11-.2l-1.54-.41,1.77-1a.16.16,0,0,0,.06-.22l-.48-.83a.16.16,0,0,0-.22-.06l-1.77,1,.41-1.55a.15.15,0,0,0-.11-.19l-.93-.25a.16.16,0,0,0-.19.11L45.72,95l-2.27,1.31v-2.5l2-2a.16.16,0,0,0,0-.22l-.68-.69a.16.16,0,0,0-.22,0L43.45,92V89.85a.16.16,0,0,0-.16-.16h-1a.16.16,0,0,0-.16.16V92L41,90.88a.16.16,0,0,0-.22,0l-.68.69a.16.16,0,0,0,0,.22l2,2v2.5L40,95.07l-.74-2.78a.17.17,0,0,0-.2-.11l-.93.25a.16.16,0,0,0-.11.19l.42,1.55-1.88-1.09a.15.15,0,0,0-.21.06l-.49.83a.17.17,0,0,0,.06.22l1.88,1.08-1.55.42a.15.15,0,0,0-.11.19l.25.93a.16.16,0,0,0,.19.11l2.78-.75,2.17,1.25-2.17,1.25-2.78-.74a.15.15,0,0,0-.19.11l-.25.93a.16.16,0,0,0,.11.19l1.55.41-1.88,1.09a.16.16,0,0,0-.06.21l.49.83a.15.15,0,0,0,.21.06l1.88-1.08L38,102.22a.15.15,0,0,0,.11.19l.93.25a.15.15,0,0,0,.2-.11L40,99.78l2.16-1.25v2.61l-2,2a.16.16,0,0,0,0,.22l.68.68a.16.16,0,0,0,.22,0L42.17,103v2a.16.16,0,0,0,.16.15h1a.16.16,0,0,0,.16-.15v-2l1.13,1.13a.16.16,0,0,0,.22,0l.68-.68a.16.16,0,0,0,0-.22l-2-2V98.53l2.27,1.31.74,2.77a.15.15,0,0,0,.19.11l.93-.25a.15.15,0,0,0,.11-.19l-.41-1.54,1.77,1a.16.16,0,0,0,.22-.06l.48-.83A.15.15,0,0,0,49.69,100.66Z"/><path class="cls-6" d="M33.85,88.38l-3.49-2,3-.82a.29.29,0,0,0,.21-.37l-.49-1.83a.31.31,0,0,0-.37-.22l-5.46,1.46L22.84,82l4.45-2.57,5.46,1.47a.31.31,0,0,0,.37-.22l.49-1.83a.29.29,0,0,0-.21-.37l-3-.82,3.49-2a.31.31,0,0,0,.11-.42l-1-1.64a.31.31,0,0,0-.41-.11l-3.49,2,.81-3a.31.31,0,0,0-.21-.38l-1.83-.49a.32.32,0,0,0-.38.22L26,77.29l-4.45,2.56V75l4-4a.31.31,0,0,0,0-.44l-1.33-1.33a.31.31,0,0,0-.44,0l-2.22,2.22V67.15a.31.31,0,0,0-.31-.31H19.39a.3.3,0,0,0-.3.31v4.26l-2.23-2.22a.3.3,0,0,0-.43,0l-1.34,1.33a.31.31,0,0,0,0,.44l4,4v4.9L14.84,77.4,13.38,72a.32.32,0,0,0-.38-.22l-1.82.49a.3.3,0,0,0-.22.38l.81,3L8.08,73.5a.32.32,0,0,0-.42.11l-1,1.64a.31.31,0,0,0,.12.42l3.69,2.13-3,.81a.31.31,0,0,0-.21.38l.49,1.83a.29.29,0,0,0,.37.21l5.46-1.46L17.83,82l-4.24,2.46L8.13,83a.31.31,0,0,0-.37.22l-.49,1.83a.29.29,0,0,0,.21.37l3,.82L6.83,88.38a.31.31,0,0,0-.12.42l1,1.64a.32.32,0,0,0,.42.11l3.69-2.13-.81,3a.31.31,0,0,0,.22.38l1.82.49a.32.32,0,0,0,.38-.22l1.46-5.45,4.25-2.46v5.14l-4,4a.3.3,0,0,0,0,.43l1.34,1.34a.3.3,0,0,0,.43,0l2.23-2.23v4a.3.3,0,0,0,.3.31h1.89a.31.31,0,0,0,.31-.31v-4l2.22,2.23a.31.31,0,0,0,.44,0l1.33-1.34a.3.3,0,0,0,0-.43l-4-4V84.19L26,86.76l1.46,5.46a.31.31,0,0,0,.38.21l1.83-.49a.29.29,0,0,0,.21-.37l-.81-3,3.49,2a.31.31,0,0,0,.41-.11l1-1.64A.31.31,0,0,0,33.85,88.38Z"/><path class="cls-7" d="M27.36,72.35l-1.71-1.72,0,0a.29.29,0,0,1,0,.35l-4,4v4.9L26,77.29Zm-16,7.83a14.78,14.78,0,0,0,3.14.46v0h1l-1.9-1.1Zm3.53-2.78,4.25,2.45V77.7L13.39,72Zm6.75-6,2.15-2.15-2.18-2.19s0,.05,0,.08Zm18.48,9.26L33,73.61l1,1.64a.31.31,0,0,1-.11.42l-3.49,2,3,.82a.29.29,0,0,1,.21.37l-.48,1.8ZM31.68,74l-1.81-1.82h0a.3.3,0,0,1,.06.26l-.81,3Zm-6.49,6.64h6.64l-4.54-1.22Z"/><path class="cls-6" d="M80.37,88.38l-3.48-2,3-.82a.31.31,0,0,0,.22-.37l-.49-1.83a.32.32,0,0,0-.38-.22l-5.45,1.46L69.37,82l4.45-2.57,5.45,1.47a.32.32,0,0,0,.38-.22l.49-1.83a.31.31,0,0,0-.22-.37l-3-.82,3.48-2a.31.31,0,0,0,.12-.42l-.95-1.64a.32.32,0,0,0-.42-.11l-3.49,2,.82-3a.32.32,0,0,0-.22-.38l-1.83-.49a.31.31,0,0,0-.37.22l-1.46,5.46-4.45,2.56V75l4-4a.31.31,0,0,0,0-.44l-1.34-1.33a.3.3,0,0,0-.43,0l-2.22,2.22V67.15a.31.31,0,0,0-.31-.31H65.92a.31.31,0,0,0-.31.31v4.26l-2.22-2.22a.3.3,0,0,0-.43,0l-1.34,1.33a.31.31,0,0,0,0,.44l4,4v4.9L61.36,77.4,59.9,72a.31.31,0,0,0-.37-.22l-1.83.49a.31.31,0,0,0-.22.38l.82,3L54.61,73.5a.32.32,0,0,0-.42.11l-.95,1.64a.32.32,0,0,0,.11.42L57,77.8l-3,.81a.32.32,0,0,0-.22.38l.49,1.83a.31.31,0,0,0,.38.21l5.45-1.46L64.36,82l-4.25,2.46L54.66,83a.32.32,0,0,0-.38.22l-.49,1.83a.3.3,0,0,0,.22.37l3,.82-3.69,2.13a.32.32,0,0,0-.11.42l.95,1.64a.32.32,0,0,0,.42.11l3.69-2.13-.82,3a.32.32,0,0,0,.22.38l1.83.49a.31.31,0,0,0,.37-.22l1.46-5.45,4.25-2.46v5.14l-4,4a.3.3,0,0,0,0,.43L63,95.1a.3.3,0,0,0,.43,0l2.22-2.23v4a.31.31,0,0,0,.31.31h1.89a.31.31,0,0,0,.31-.31v-4l2.22,2.23a.3.3,0,0,0,.43,0l1.34-1.34a.3.3,0,0,0,0-.43l-4-4V84.19l4.45,2.57L74,92.22a.29.29,0,0,0,.37.21l1.83-.49a.31.31,0,0,0,.22-.37l-.82-3,3.49,2a.32.32,0,0,0,.42-.11l.95-1.64A.31.31,0,0,0,80.37,88.38Z"/><path class="cls-7" d="M71.72,80.67h1.43v0c.58,0,1.14-.08,1.7-.15s1.07-.18,1.59-.3h0l-2.66-.72ZM78.21,74l-1.82-1.82h0a.3.3,0,0,1,.07.26l-.82,3Zm-4.32-1.68-1.72-1.72,0,0a.34.34,0,0,1,0,.17.24.24,0,0,1-.07.18l-4,4v4.9l4.45-2.56ZM56,80.67h6l-1.9-1.1Zm23.52-7.06.95,1.64a.31.31,0,0,1-.12.42l-3.48,2,3,.82a.31.31,0,0,1,.22.37v0a16.9,16.9,0,0,0,1.52-.8h0c.49-.29,1-.6,1.43-.93Zm-11.42-2.2,2.15-2.15-2.19-2.19s0,.05,0,.08Zm-6.76,6,4.25,2.45V77.7L59.92,72Z"/></g></g></svg>