<svg xmlns="http://www.w3.org/2000/svg" viewBox="0 0 90.69 100.68"><defs><style>.cls-1{fill:#c6c5a3;}.cls-2{fill:#d1d1b0;}.cls-3{fill:#b7b284;}.cls-4{fill:#c1be99;}.cls-5{fill:#fff;}.cls-6{fill:#f2f4f9;}.cls-7{fill:#00e1ff;}.cls-8{fill:#122c3d;opacity:0.2;}</style></defs><g id="Layer_2" data-name="Layer 2"><g id="Weather_Icons" data-name="Weather Icons"><path class="cls-1" d="M88.05,36.67A36.68,36.68,0,1,1,51.37,0,36.68,36.68,0,0,1,88.05,36.67Z"/><path class="cls-2" d="M51.37,0A36.48,36.48,0,0,0,31.68,5.74,36.67,36.67,0,0,0,82.31,56.37,36.67,36.67,0,0,0,51.37,0Z"/><path class="cls-3" d="M34.6,32.15a6.88,6.88,0,1,1-6.88-6.87A6.87,6.87,0,0,1,34.6,32.15Z"/><path class="cls-4" d="M27.72,25.28A6.84,6.84,0,0,0,24,26.35a6.87,6.87,0,0,0,9.49,9.49,6.86,6.86,0,0,0-5.8-10.56Z"/><path class="cls-3" d="M62.68,35.11a9.64,9.64,0,1,1-9.63-9.64A9.63,9.63,0,0,1,62.68,35.11Z"/><path class="cls-4" d="M53.05,25.47A9.64,9.64,0,0,0,47.87,27a9.63,9.63,0,0,0,13.3,13.3,9.52,9.52,0,0,0,1.51-5.17A9.64,9.64,0,0,0,53.05,25.47Z"/><path class="cls-3" d="M40.13,55.7a4,4,0,1,1-4-4A4,4,0,0,1,40.13,55.7Z"/><path class="cls-4" d="M36.1,51.67a4,4,0,0,0-2.16.63,4,4,0,0,0,5.56,5.56,4.1,4.1,0,0,0,.63-2.16A4,4,0,0,0,36.1,51.67Z"/><path class="cls-3" d="M73.52,15.52a4.94,4.94,0,1,1-4.94-4.94A4.94,4.94,0,0,1,73.52,15.52Z"/><path class="cls-4" d="M68.58,10.58a4.9,4.9,0,0,0-2.65.77A4.87,4.87,0,0,0,65.16,14a4.94,4.94,0,0,0,7.59,4.17,4.94,4.94,0,0,0-4.17-7.59Z"/><path class="cls-3" d="M44,9.84A2.81,2.81,0,1,1,41.17,7,2.81,2.81,0,0,1,44,9.84Z"/><path class="cls-4" d="M41.17,7a2.76,2.76,0,0,0-1.51.44,2.81,2.81,0,0,0,3.88,3.88A2.78,2.78,0,0,0,44,9.84,2.81,2.81,0,0,0,41.17,7Z"/><path class="cls-3" d="M83.21,40.44a5.13,5.13,0,1,1-5.12-5.13A5.13,5.13,0,0,1,83.21,40.44Z"/><path class="cls-4" d="M78.09,35.31a5.08,5.08,0,0,0-2.76.81,5,5,0,0,0-.8,2.75,5.13,5.13,0,0,0,7.88,4.33,5.14,5.14,0,0,0-4.32-7.89Z"/><path class="cls-3" d="M66.8,61.48a4.42,4.42,0,1,1-4.42-4.42A4.42,4.42,0,0,1,66.8,61.48Z"/><path class="cls-4" d="M62.38,57.06a4.48,4.48,0,0,0-2.38.69,4.42,4.42,0,0,0,6.1,6.11,4.41,4.41,0,0,0-3.72-6.8Z"/><path class="cls-5" d="M50.18,18.68A23.84,23.84,0,0,0,27.52,35.13a18.39,18.39,0,0,0-13,11.08,15,15,0,0,0,0,30v0h36V18.7Z"/><path class="cls-6" d="M73.82,39.59A23.81,23.81,0,0,0,50.46,18.7V76.2H73.15v0a18.32,18.32,0,0,0,.67-36.56Z"/><path class="cls-7" d="M49.69,96.19l-1.77-1,1.54-.41a.17.17,0,0,0,.11-.2l-.25-.93a.16.16,0,0,0-.19-.11l-2.78.75L44.09,93l2.26-1.31,2.78.75a.16.16,0,0,0,.19-.12l.25-.93a.16.16,0,0,0-.11-.19l-1.54-.41,1.77-1a.15.15,0,0,0,.06-.21l-.48-.83a.16.16,0,0,0-.22-.06l-1.77,1,.41-1.54a.15.15,0,0,0-.11-.19l-.93-.25a.16.16,0,0,0-.19.11l-.74,2.78-2.27,1.31v-2.5l2-2a.16.16,0,0,0,0-.22l-.68-.68a.16.16,0,0,0-.22,0l-1.13,1.13V85.37a.16.16,0,0,0-.16-.15h-1a.16.16,0,0,0-.16.15v2.17L41,86.41a.16.16,0,0,0-.22,0l-.68.68a.16.16,0,0,0,0,.22l2,2v2.5L40,90.6l-.74-2.78a.17.17,0,0,0-.2-.11l-.93.25a.16.16,0,0,0-.11.19l.42,1.54-1.88-1.08a.15.15,0,0,0-.21.06l-.49.83a.16.16,0,0,0,.06.21l1.88,1.09-1.55.41a.16.16,0,0,0-.11.19l.25.93a.16.16,0,0,0,.19.12l2.78-.75L41.54,93,39.37,94.2l-2.78-.75a.16.16,0,0,0-.19.11l-.25.94a.16.16,0,0,0,.11.19l1.55.41-1.88,1.09a.16.16,0,0,0-.06.21l.49.83a.15.15,0,0,0,.21.06l1.88-1.08L38,97.75a.16.16,0,0,0,.11.19l.93.25a.17.17,0,0,0,.2-.11L40,95.3l2.16-1.25v2.62l-2,2a.16.16,0,0,0,0,.22l.68.68a.16.16,0,0,0,.22,0l1.13-1.13v2a.16.16,0,0,0,.16.15h1a.16.16,0,0,0,.16-.15v-2l1.13,1.13a.16.16,0,0,0,.22,0l.68-.68a.16.16,0,0,0,0-.22l-2-2V94.05l2.27,1.31.74,2.78a.16.16,0,0,0,.19.11l.93-.25a.15.15,0,0,0,.11-.19l-.41-1.54,1.77,1a.16.16,0,0,0,.22-.06l.48-.83A.15.15,0,0,0,49.69,96.19Z"/><path class="cls-7" d="M33.85,83.91l-3.49-2,3-.81a.3.3,0,0,0,.21-.38l-.49-1.82a.3.3,0,0,0-.37-.22l-5.46,1.46-4.45-2.57L27.29,75l5.46,1.46a.29.29,0,0,0,.37-.21l.49-1.83A.31.31,0,0,0,33.4,74l-3-.81,3.49-2a.31.31,0,0,0,.11-.42l-1-1.64A.29.29,0,0,0,32.6,69l-3.49,2,.81-3a.3.3,0,0,0-.21-.38l-1.83-.49a.32.32,0,0,0-.38.22L26,72.81l-4.45,2.57v-4.9l4-4a.31.31,0,0,0,0-.44l-1.33-1.34a.33.33,0,0,0-.44,0l-2.22,2.23V62.67a.31.31,0,0,0-.31-.3H19.39a.3.3,0,0,0-.3.3v4.27l-2.23-2.23a.32.32,0,0,0-.43,0l-1.34,1.34a.31.31,0,0,0,0,.44l4,4v4.9l-4.25-2.45-1.46-5.45a.3.3,0,0,0-.38-.22l-1.82.49a.29.29,0,0,0-.22.37l.81,3L8.08,69a.3.3,0,0,0-.42.11l-1,1.64a.31.31,0,0,0,.12.42l3.69,2.13-3,.81a.31.31,0,0,0-.21.38l.49,1.82a.29.29,0,0,0,.37.22l5.46-1.46,4.24,2.45L13.59,80,8.13,78.54a.31.31,0,0,0-.37.22l-.49,1.83a.29.29,0,0,0,.21.37l3,.82L6.83,83.91a.3.3,0,0,0-.12.41l1,1.64a.31.31,0,0,0,.42.12L11.77,84,11,87a.29.29,0,0,0,.22.37l1.82.5a.32.32,0,0,0,.38-.22l1.46-5.46,4.25-2.45v5.14l-4,4a.31.31,0,0,0,0,.44l1.34,1.33a.29.29,0,0,0,.43,0l2.23-2.22v4a.3.3,0,0,0,.3.31h1.89a.31.31,0,0,0,.31-.31v-4l2.22,2.22a.3.3,0,0,0,.44,0l1.33-1.33a.31.31,0,0,0,0-.44l-4-4V79.72L26,82.29l1.46,5.45a.31.31,0,0,0,.38.22l1.83-.49a.29.29,0,0,0,.21-.37l-.81-3,3.49,2A.3.3,0,0,0,33,86l1-1.64A.3.3,0,0,0,33.85,83.91Z"/><path class="cls-8" d="M27.36,67.88l-1.71-1.72,0,0a.29.29,0,0,1,0,.35l-4,4v4.9L26,72.81Zm-16,7.83a14.78,14.78,0,0,0,3.14.46v0h1l-1.9-1.1Zm3.53-2.78,4.25,2.45V73.23l-5.7-5.7Zm6.75-6,2.15-2.16L21.56,62.6s0,0,0,.07ZM40.07,76.2,33,69.14l1,1.64a.31.31,0,0,1-.11.42l-3.49,2,3,.81a.31.31,0,0,1,.21.38l-.48,1.8Zm-8.39-6.64-1.81-1.82h0a.3.3,0,0,1,.06.26l-.81,3ZM25.19,76.2h6.64L27.29,75Z"/><path class="cls-7" d="M80.37,83.91l-3.48-2,3-.81a.31.31,0,0,0,.22-.38l-.49-1.82a.31.31,0,0,0-.38-.22l-5.45,1.46-4.45-2.57L73.82,75l5.45,1.46a.31.31,0,0,0,.38-.21l.49-1.83a.32.32,0,0,0-.22-.38l-3-.81,3.48-2a.31.31,0,0,0,.12-.42l-.95-1.64a.3.3,0,0,0-.42-.11l-3.49,2,.82-3a.31.31,0,0,0-.22-.38l-1.83-.49a.31.31,0,0,0-.37.22l-1.46,5.45-4.45,2.57v-4.9l4-4a.31.31,0,0,0,0-.44l-1.34-1.34a.32.32,0,0,0-.43,0l-2.22,2.23V62.67a.31.31,0,0,0-.31-.3H65.92a.31.31,0,0,0-.31.3v4.27l-2.22-2.23a.32.32,0,0,0-.43,0l-1.34,1.34a.31.31,0,0,0,0,.44l4,4v4.9l-4.25-2.45L59.9,67.48a.29.29,0,0,0-.37-.22l-1.83.49a.31.31,0,0,0-.22.37l.82,3L54.61,69a.3.3,0,0,0-.42.11l-.95,1.64a.32.32,0,0,0,.11.42L57,73.33l-3,.81a.31.31,0,0,0-.22.38l.49,1.82a.31.31,0,0,0,.38.22l5.45-1.46,4.25,2.45L60.11,80l-5.45-1.46a.32.32,0,0,0-.38.22l-.49,1.83A.3.3,0,0,0,54,81l3,.82-3.69,2.13a.31.31,0,0,0-.11.41L54.19,86a.31.31,0,0,0,.42.12L58.3,84l-.82,3a.31.31,0,0,0,.22.37l1.83.5a.31.31,0,0,0,.37-.22l1.46-5.46,4.25-2.45v5.14l-4,4a.31.31,0,0,0,0,.44L63,90.62a.29.29,0,0,0,.43,0l2.22-2.22v4a.31.31,0,0,0,.31.31h1.89a.31.31,0,0,0,.31-.31v-4l2.22,2.22a.29.29,0,0,0,.43,0l1.34-1.33a.31.31,0,0,0,0-.44l-4-4V79.72l4.45,2.57L74,87.74a.29.29,0,0,0,.37.22l1.83-.49a.31.31,0,0,0,.22-.37l-.82-3,3.49,2a.31.31,0,0,0,.42-.12l.95-1.64A.3.3,0,0,0,80.37,83.91Z"/><path class="cls-8" d="M71.72,76.2h1.43v0c.58,0,1.14-.08,1.7-.15s1.07-.18,1.59-.3h0L73.82,75Zm6.49-6.64-1.82-1.82h0a.3.3,0,0,1,.07.26l-.82,3Zm-4.32-1.68-1.72-1.72,0,0a.34.34,0,0,1,0,.17.26.26,0,0,1-.07.18l-4,4v4.9l4.45-2.57ZM56,76.2h6l-1.9-1.1Zm23.52-7.06.95,1.64a.31.31,0,0,1-.12.42l-3.48,2,3,.81a.32.32,0,0,1,.22.38v0a16.9,16.9,0,0,0,1.52-.8h0a16.77,16.77,0,0,0,1.43-.94Zm-11.42-2.2,2.15-2.16L68.08,62.6s0,0,0,.07Zm-6.76,6,4.25,2.45V73.23l-5.69-5.7Z"/></g></g></svg>