<svg xmlns="http://www.w3.org/2000/svg" viewBox="0 0 90.69 94.88">
   <defs>
      <style>.cls-1{fill:#fff;}.cls-2{fill:#f2f4f9;}.cls-3{fill:#ffda24;}.cls-4{fill:#ffa300;}</style>
   </defs>
   <g>
      <path class="cls-1" d="M50.18,0A23.84,23.84,0,0,0,27.52,16.45a18.37,18.37,0,0,0-13,11.08,15,15,0,0,0,0,30v0h36V0Z" />
      <path class="cls-2" d="M73.82,20.91A23.82,23.82,0,0,0,50.46,0v57.5H73.15v0a18.32,18.32,0,0,0,.67-36.56Z" />
      <polygon class="cls-3" points="39 57.51 22.58 57.51 15.35 75.64 26.95 75.64 19.86 94.88 42.84 69.04 31.31 69.04 39 57.51" />
      <polygon class="cls-4" points="39 57.51 22.58 57.51 22.56 57.56 32.41 67.4 39 57.51" />
      <polygon class="cls-3" points="72.11 57.51 55.69 57.51 48.47 75.64 60.07 75.64 52.97 94.88 75.95 69.04 64.42 69.04 72.11 57.51" />
      <polygon class="cls-4" points="72.11 57.51 55.69 57.51 55.68 57.56 65.52 67.4 72.11 57.51" />
   </g>
</svg>